<mxfile host="app.diagrams.net" modified="2021-04-14T19:57:26.492Z" agent="5.0 (Windows)" etag="XRa74JiQ_PjdQBZVkKWo" version="14.5.10" type="github">
  <diagram id="duv1vuj0tsQ5fLJk7el3" name="Page-1">
    <mxGraphModel dx="1038" dy="575" grid="1" gridSize="10" guides="1" tooltips="1" connect="1" arrows="1" fold="1" page="1" pageScale="1" pageWidth="2339" pageHeight="3300" math="0" shadow="0">
      <root>
        <mxCell id="0" />
        <mxCell id="1" parent="0" />
        <mxCell id="sD3GuncJh9ozToUV7p3l-1" value="Start" style="rounded=1;whiteSpace=wrap;html=1;fillColor=#dae8fc;strokeColor=#6c8ebf;" vertex="1" parent="1">
          <mxGeometry x="980" y="60" width="120" height="60" as="geometry" />
        </mxCell>
        <mxCell id="sD3GuncJh9ozToUV7p3l-2" value="Default Equality?" style="rhombus;whiteSpace=wrap;html=1;fillColor=#dae8fc;strokeColor=#6c8ebf;" vertex="1" parent="1">
          <mxGeometry x="965" y="180" width="150" height="80" as="geometry" />
        </mxCell>
        <mxCell id="sD3GuncJh9ozToUV7p3l-3" value="&lt;font color=&quot;#FFFFFF&quot;&gt;Y&lt;/font&gt;" style="rounded=0;whiteSpace=wrap;html=1;fillColor=#5FBD00;strokeColor=none;" vertex="1" parent="1">
          <mxGeometry x="910" y="200" width="50" height="40" as="geometry" />
        </mxCell>
        <mxCell id="sD3GuncJh9ozToUV7p3l-4" value="&lt;font color=&quot;#FFFFFF&quot;&gt;N&lt;/font&gt;" style="rounded=0;whiteSpace=wrap;html=1;fillColor=#FF3333;strokeColor=none;" vertex="1" parent="1">
          <mxGeometry x="1125" y="200" width="50" height="40" as="geometry" />
        </mxCell>
        <mxCell id="sD3GuncJh9ozToUV7p3l-5" value="&lt;div&gt;Do : Defaulted operator==&lt;/div&gt;&lt;div&gt;Get : operator!=&lt;br&gt;&lt;/div&gt;" style="rounded=0;whiteSpace=wrap;html=1;fillColor=#dae8fc;strokeColor=#6c8ebf;" vertex="1" parent="1">
          <mxGeometry x="620" y="190" width="220" height="60" as="geometry" />
        </mxCell>
        <mxCell id="sD3GuncJh9ozToUV7p3l-7" value="Custom Equality?" style="rhombus;whiteSpace=wrap;html=1;fillColor=#dae8fc;strokeColor=#6c8ebf;" vertex="1" parent="1">
          <mxGeometry x="1175" y="310" width="150" height="80" as="geometry" />
        </mxCell>
        <mxCell id="sD3GuncJh9ozToUV7p3l-8" value="&lt;font color=&quot;#FFFFFF&quot;&gt;Y&lt;/font&gt;" style="rounded=0;whiteSpace=wrap;html=1;fillColor=#5FBD00;strokeColor=none;" vertex="1" parent="1">
          <mxGeometry x="1120" y="330" width="50" height="40" as="geometry" />
        </mxCell>
        <mxCell id="sD3GuncJh9ozToUV7p3l-9" value="&lt;font color=&quot;#FFFFFF&quot;&gt;N&lt;/font&gt;" style="rounded=0;whiteSpace=wrap;html=1;fillColor=#FF3333;strokeColor=none;" vertex="1" parent="1">
          <mxGeometry x="1330" y="330" width="50" height="40" as="geometry" />
        </mxCell>
        <mxCell id="sD3GuncJh9ozToUV7p3l-10" value="&lt;div&gt;Do : Default operator&amp;lt;=&amp;gt;&lt;br&gt;&lt;/div&gt;&lt;div&gt;Get : operator ==,!=,&amp;gt;,&amp;gt;=,&amp;lt;,&amp;lt;=&lt;br&gt;&lt;/div&gt;" style="rounded=0;whiteSpace=wrap;html=1;fillColor=#dae8fc;strokeColor=#6c8ebf;" vertex="1" parent="1">
          <mxGeometry x="1130" y="510" width="220" height="60" as="geometry" />
        </mxCell>
        <mxCell id="sD3GuncJh9ozToUV7p3l-11" value="Default Ordering?" style="rhombus;whiteSpace=wrap;html=1;fillColor=#dae8fc;strokeColor=#6c8ebf;" vertex="1" parent="1">
          <mxGeometry x="1365" y="410" width="150" height="80" as="geometry" />
        </mxCell>
        <mxCell id="sD3GuncJh9ozToUV7p3l-13" value="&lt;font color=&quot;#FFFFFF&quot;&gt;Y&lt;/font&gt;" style="rounded=0;whiteSpace=wrap;html=1;fillColor=#5FBD00;strokeColor=none;" vertex="1" parent="1">
          <mxGeometry x="1310" y="430" width="50" height="40" as="geometry" />
        </mxCell>
        <mxCell id="sD3GuncJh9ozToUV7p3l-14" value="&lt;font color=&quot;#FFFFFF&quot;&gt;N&lt;/font&gt;" style="rounded=0;whiteSpace=wrap;html=1;fillColor=#FF3333;strokeColor=none;" vertex="1" parent="1">
          <mxGeometry x="1520" y="430" width="50" height="40" as="geometry" />
        </mxCell>
        <mxCell id="sD3GuncJh9ozToUV7p3l-15" value="&lt;div&gt;Do : Custom operator==&lt;/div&gt;&lt;div&gt;Get : operator!=&lt;br&gt;&lt;/div&gt;" style="rounded=0;whiteSpace=wrap;html=1;fillColor=#dae8fc;strokeColor=#6c8ebf;" vertex="1" parent="1">
          <mxGeometry x="920" y="400" width="220" height="60" as="geometry" />
        </mxCell>
        <mxCell id="sD3GuncJh9ozToUV7p3l-16" value="Custom Ordering?" style="rhombus;whiteSpace=wrap;html=1;fillColor=#dae8fc;strokeColor=#6c8ebf;" vertex="1" parent="1">
          <mxGeometry x="1595" y="540" width="150" height="80" as="geometry" />
        </mxCell>
        <mxCell id="sD3GuncJh9ozToUV7p3l-17" value="&lt;font color=&quot;#FFFFFF&quot;&gt;Y&lt;/font&gt;" style="rounded=0;whiteSpace=wrap;html=1;fillColor=#5FBD00;strokeColor=none;" vertex="1" parent="1">
          <mxGeometry x="1540" y="560" width="50" height="40" as="geometry" />
        </mxCell>
        <mxCell id="sD3GuncJh9ozToUV7p3l-18" value="&lt;font color=&quot;#FFFFFF&quot;&gt;N&lt;/font&gt;" style="rounded=0;whiteSpace=wrap;html=1;fillColor=#FF3333;strokeColor=none;" vertex="1" parent="1">
          <mxGeometry x="1760" y="560" width="50" height="40" as="geometry" />
        </mxCell>
        <mxCell id="sD3GuncJh9ozToUV7p3l-19" value="&lt;div&gt;Do : Custom operator&amp;lt;=&amp;gt;&lt;/div&gt;&lt;div&gt;Do : Custom operator==&lt;br&gt;&lt;/div&gt;&lt;div&gt;Get : operator ==,!=,&amp;gt;,&amp;gt;=,&amp;lt;,&amp;lt;=&lt;br&gt;&lt;/div&gt;" style="rounded=0;whiteSpace=wrap;html=1;fillColor=#dae8fc;strokeColor=#6c8ebf;" vertex="1" parent="1">
          <mxGeometry x="1360" y="640" width="220" height="60" as="geometry" />
        </mxCell>
        <mxCell id="sD3GuncJh9ozToUV7p3l-20" value="End" style="rounded=1;whiteSpace=wrap;html=1;fillColor=#dae8fc;strokeColor=#6c8ebf;" vertex="1" parent="1">
          <mxGeometry x="1725" y="660" width="120" height="60" as="geometry" />
        </mxCell>
        <mxCell id="sD3GuncJh9ozToUV7p3l-22" value="" style="endArrow=classic;html=1;" edge="1" parent="1">
          <mxGeometry width="50" height="50" relative="1" as="geometry">
            <mxPoint x="1039.5" y="130" as="sourcePoint" />
            <mxPoint x="1039.5" y="180" as="targetPoint" />
          </mxGeometry>
        </mxCell>
        <mxCell id="sD3GuncJh9ozToUV7p3l-23" value="" style="endArrow=classic;html=1;" edge="1" parent="1">
          <mxGeometry width="50" height="50" relative="1" as="geometry">
            <mxPoint x="910" y="220" as="sourcePoint" />
            <mxPoint x="840" y="219.5" as="targetPoint" />
          </mxGeometry>
        </mxCell>
        <mxCell id="sD3GuncJh9ozToUV7p3l-24" value="" style="endArrow=classic;html=1;" edge="1" parent="1">
          <mxGeometry width="50" height="50" relative="1" as="geometry">
            <mxPoint x="1190" y="219.5" as="sourcePoint" />
            <mxPoint x="1250" y="300" as="targetPoint" />
            <Array as="points">
              <mxPoint x="1250" y="220" />
            </Array>
          </mxGeometry>
        </mxCell>
        <mxCell id="sD3GuncJh9ozToUV7p3l-25" value="" style="endArrow=classic;html=1;" edge="1" parent="1">
          <mxGeometry width="50" height="50" relative="1" as="geometry">
            <mxPoint x="1110" y="350" as="sourcePoint" />
            <mxPoint x="1020" y="390" as="targetPoint" />
            <Array as="points">
              <mxPoint x="1020" y="350" />
            </Array>
          </mxGeometry>
        </mxCell>
        <mxCell id="sD3GuncJh9ozToUV7p3l-26" value="" style="endArrow=classic;html=1;" edge="1" parent="1">
          <mxGeometry width="50" height="50" relative="1" as="geometry">
            <mxPoint x="1295" y="450" as="sourcePoint" />
            <mxPoint x="1240" y="500" as="targetPoint" />
            <Array as="points">
              <mxPoint x="1240" y="450" />
            </Array>
          </mxGeometry>
        </mxCell>
        <mxCell id="sD3GuncJh9ozToUV7p3l-27" value="" style="endArrow=classic;html=1;" edge="1" parent="1">
          <mxGeometry width="50" height="50" relative="1" as="geometry">
            <mxPoint x="1390" y="350" as="sourcePoint" />
            <mxPoint x="1440" y="400" as="targetPoint" />
            <Array as="points">
              <mxPoint x="1440" y="351" />
            </Array>
          </mxGeometry>
        </mxCell>
        <mxCell id="sD3GuncJh9ozToUV7p3l-28" value="" style="endArrow=classic;html=1;" edge="1" parent="1">
          <mxGeometry width="50" height="50" relative="1" as="geometry">
            <mxPoint x="1520" y="580" as="sourcePoint" />
            <mxPoint x="1465" y="630" as="targetPoint" />
            <Array as="points">
              <mxPoint x="1465" y="580" />
            </Array>
          </mxGeometry>
        </mxCell>
        <mxCell id="sD3GuncJh9ozToUV7p3l-29" value="" style="endArrow=classic;html=1;" edge="1" parent="1">
          <mxGeometry width="50" height="50" relative="1" as="geometry">
            <mxPoint x="1580" y="450" as="sourcePoint" />
            <mxPoint x="1670" y="530" as="targetPoint" />
            <Array as="points">
              <mxPoint x="1670" y="451" />
            </Array>
          </mxGeometry>
        </mxCell>
        <mxCell id="sD3GuncJh9ozToUV7p3l-30" value="" style="endArrow=classic;html=1;" edge="1" parent="1">
          <mxGeometry width="50" height="50" relative="1" as="geometry">
            <mxPoint x="1784.5" y="600" as="sourcePoint" />
            <mxPoint x="1784.5" y="650" as="targetPoint" />
          </mxGeometry>
        </mxCell>
      </root>
    </mxGraphModel>
  </diagram>
</mxfile>
